<?xml version="1.0" encoding="UTF-8" standalone="no"?>
<svg
   xmlns:dc="http://purl.org/dc/elements/1.1/"
   xmlns:cc="http://creativecommons.org/ns#"
   xmlns:rdf="http://www.w3.org/1999/02/22-rdf-syntax-ns#"
   xmlns:svg="http://www.w3.org/2000/svg"
   xmlns="http://www.w3.org/2000/svg"
   xmlns:sodipodi="http://sodipodi.sourceforge.net/DTD/sodipodi-0.dtd"
   xmlns:inkscape="http://www.inkscape.org/namespaces/inkscape"
   sodipodi:docname="Cat_thick.svg"
   inkscape:version="1.0 (4035a4fb49, 2020-05-01)"
   id="svg8"
   version="1.1"
   viewBox="0 0 64 64"
   height="64"
   width="64">
  <defs
     id="defs2">
    <inkscape:path-effect
       update_on_knot_move="true"
       attempt_force_join="true"
       miter_limit="4"
       offset="0.5"
       unit="mm"
       linejoin_type="miter"
       lpeversion="1"
       is_visible="true"
       id="path-effect1409"
       effect="offset" />
    <inkscape:path-effect
       hide_knots="false"
       only_selected="false"
       apply_with_radius="true"
       apply_no_radius="true"
       use_knot_distance="true"
       flexible="false"
       chamfer_steps="1"
       radius="4"
       mode="F"
       method="auto"
       unit="px"
       satellites_param="F,0,0,1,0,4,0,1 @ F,0,0,1,0,4,0,1 @ F,0,0,1,0,4,0,1 @ F,0,0,1,0,0,0,1 | F,0,0,1,0,4,0,1 @ F,0,0,1,0,0,0,1 @ F,0,0,1,0,4,0,1 @ F,0,0,1,0,0,0,1 | F,0,0,1,0,4,0,1 @ F,0,0,1,0,4,0,1 @ F,0,0,1,0,4,0,1 @ F,0,0,1,0,4,0,1 @ F,0,0,1,0,4,0,1 @ F,0,0,1,0,4,0,1 @ F,0,0,1,0,0,0,1 @ F,0,0,1,0,4,0,1 @ F,0,0,1,0,4,0,1 @ F,0,0,1,0,4,0,1 @ F,0,0,1,0,4,0,1 @ F,0,0,1,0,4,0,1 @ F,0,0,1,0,4,0,1 @ F,0,0,1,0,4,0,1 @ F,0,0,1,0,4,0,1 @ F,0,0,1,0,4,0,1"
       lpeversion="1"
       is_visible="true"
       id="path-effect1407"
       effect="fillet_chamfer" />
  </defs>
  <sodipodi:namedview
     inkscape:window-maximized="1"
     inkscape:window-y="-8"
     inkscape:window-x="1912"
     inkscape:window-height="1017"
     inkscape:window-width="1920"
     units="px"
     inkscape:guide-bbox="true"
     showguides="true"
     showgrid="true"
     inkscape:document-rotation="0"
     inkscape:current-layer="layer1"
     inkscape:document-units="px"
     inkscape:cy="42.395265"
     inkscape:cx="30.348784"
     inkscape:zoom="7.9195959"
     inkscape:pageshadow="2"
     inkscape:pageopacity="0"
     borderopacity="1.0"
     bordercolor="#666666"
     pagecolor="#ed9152"
     id="base">
    <inkscape:grid
       type="xygrid"
       id="grid830"
       empspacing="8"
       dotted="true" />
  </sodipodi:namedview>
  <metadata
     id="metadata5">
    <rdf:RDF>
      <cc:Work
         rdf:about="">
        <dc:format>image/svg+xml</dc:format>
        <dc:type
           rdf:resource="http://purl.org/dc/dcmitype/StillImage" />
        <dc:title></dc:title>
      </cc:Work>
    </rdf:RDF>
  </metadata>
  <g
     id="layer1"
     inkscape:groupmode="layer"
     inkscape:label="Layer 1">
    <path
       inkscape:original-d="m 56,16 h 8 v 16 h -8 z m -8,16 h 8 v 8 H 48 Z M 16,16 v 8 h 8 v -8 h 8 V 40 H 48 V 64 H 40 V 56 H 24 c 0,0 -0.009,8.004252 0,8 H 16 V 48 H 8 V 16 Z"
       inkscape:path-effect="#path-effect1407;#path-effect1409"
       sodipodi:nodetypes="ccccccccccccccccccccccccccc"
       d="m 12,14.109375 c -3.2623589,0 -5.890625,2.628266 -5.890625,5.890625 v 24 c 0,3.262359 2.6282661,5.890625 5.890625,5.890625 1.155919,0 2.109375,0.953456 2.109375,2.109375 v 8 c 0,3.262359 2.628266,5.890625 5.890625,5.890625 3.260081,0 5.88489,-2.625073 5.886719,-5.882813 v -0.0059 C 25.887369,58.846983 26.844071,57.890625 28,57.890625 h 8 c 1.155919,0 2.109375,0.953456 2.109375,2.109375 0,3.262359 2.628266,5.890625 5.890625,5.890625 3.262359,0 5.890625,-2.628266 5.890625,-5.890625 V 41.890625 H 52 c 3.262359,0 5.890625,-2.628266 5.890625,-5.890625 V 33.890625 H 60 c 3.262359,0 5.890625,-2.628266 5.890625,-5.890625 v -8 c 0,-3.262359 -2.628266,-5.890625 -5.890625,-5.890625 -3.262359,0 -5.890625,2.628266 -5.890625,5.890625 V 30.109375 H 52 c -3.262359,0 -5.890625,2.628266 -5.890625,5.890625 v 2.109375 H 36 c -1.155919,0 -2.109375,-0.953456 -2.109375,-2.109375 V 20 c 0,-3.262359 -2.628266,-5.890625 -5.890625,-5.890625 -3.262359,0 -5.890625,2.628266 -5.890625,5.890625 0,1.155919 -0.953456,2.109375 -2.109375,2.109375 -1.155919,0 -2.109375,-0.953456 -2.109375,-2.109375 0,-3.262359 -2.628266,-5.890625 -5.890625,-5.890625 z"
       style="fill:#ffffff;fill-opacity:1;stroke:none;stroke-width:1px;stroke-linecap:butt;stroke-linejoin:miter;stroke-opacity:1"
       id="path1404" />
  </g>
</svg>
