<?xml version="1.0" encoding="UTF-8" standalone="no"?>
<svg
   xmlns:dc="http://purl.org/dc/elements/1.1/"
   xmlns:cc="http://creativecommons.org/ns#"
   xmlns:rdf="http://www.w3.org/1999/02/22-rdf-syntax-ns#"
   xmlns:svg="http://www.w3.org/2000/svg"
   xmlns="http://www.w3.org/2000/svg"
   xmlns:sodipodi="http://sodipodi.sourceforge.net/DTD/sodipodi-0.dtd"
   xmlns:inkscape="http://www.inkscape.org/namespaces/inkscape"
   width="64"
   height="64"
   viewBox="0 0 64 64"
   version="1.1"
   id="svg8"
   inkscape:version="1.0.2-2 (e86c870879, 2021-01-15)"
   sodipodi:docname="MovingMonster.svg"
   inkscape:export-filename="D:\gamedev\Testing\MobileJump\Assets\Assets\Images\Teardrop.png"
   inkscape:export-xdpi="192"
   inkscape:export-ydpi="192">
  <defs
     id="defs2">
    <inkscape:path-effect
       effect="powerstroke"
       id="path-effect1480"
       is_visible="true"
       lpeversion="1"
       offset_points="0,1.0053932 | 0.52461679,1.1717218 | 0.98195594,1.0221315"
       sort_points="true"
       interpolator_type="CentripetalCatmullRom"
       interpolator_beta="0.2"
       start_linecap_type="zerowidth"
       linejoin_type="round"
       miter_limit="4"
       scale_width="1"
       end_linecap_type="zerowidth" />
    <inkscape:path-effect
       effect="powerstroke"
       id="path-effect1476"
       is_visible="true"
       lpeversion="1"
       offset_points="0,1.0053932 | 0.52461679,1.1717218 | 0.97908285,0.89685956"
       sort_points="true"
       interpolator_type="CentripetalCatmullRom"
       interpolator_beta="0.2"
       start_linecap_type="zerowidth"
       linejoin_type="round"
       miter_limit="4"
       scale_width="1"
       end_linecap_type="zerowidth" />
    <inkscape:path-effect
       effect="powerstroke"
       id="path-effect1472"
       is_visible="true"
       lpeversion="1"
       offset_points="0,1.0053932 | 0.52461679,1.1717218 | 0.97701974,1.2042647"
       sort_points="true"
       interpolator_type="CentripetalCatmullRom"
       interpolator_beta="0.2"
       start_linecap_type="zerowidth"
       linejoin_type="round"
       miter_limit="4"
       scale_width="1"
       end_linecap_type="zerowidth" />
    <inkscape:path-effect
       effect="powerstroke"
       id="path-effect1468"
       is_visible="true"
       lpeversion="1"
       offset_points="0,1.0053932 | 0.52461679,1.1717218 | 0.98534887,0.83269611"
       sort_points="true"
       interpolator_type="CentripetalCatmullRom"
       interpolator_beta="0.2"
       start_linecap_type="zerowidth"
       linejoin_type="round"
       miter_limit="4"
       scale_width="1"
       end_linecap_type="zerowidth" />
    <inkscape:path-effect
       effect="offset"
       id="path-effect1449"
       is_visible="true"
       lpeversion="1"
       linejoin_type="miter"
       unit="px"
       offset="0.4"
       miter_limit="4"
       attempt_force_join="true"
       update_on_knot_move="true" />
    <inkscape:path-effect
       effect="fillet_chamfer"
       id="path-effect1447"
       is_visible="true"
       lpeversion="1"
       satellites_param="F,0,0,1,0,2,0,1 @ F,0,0,1,0,2,0,1 @ F,0,0,1,0,2,0,1 @ F,0,0,1,0,2,0,1 @ F,0,0,1,0,2,0,1 @ F,0,0,1,0,2,0,1 @ F,0,0,1,0,2,0,1 @ F,0,0,1,0,2,0,1 @ F,0,0,1,0,2,0,1 @ F,0,0,1,0,2,0,1 @ F,0,0,1,0,2,0,1 @ F,0,0,1,0,2,0,1 @ F,0,0,1,0,2,0,1 @ F,0,0,1,0,2,0,1 @ F,0,0,1,0,2,0,1 @ F,0,0,1,0,2,0,1 @ F,0,0,1,0,2,0,1 @ F,0,0,1,0,2,0,1 @ F,0,0,1,0,2,0,1 @ F,0,0,1,0,2,0,1 @ F,0,0,1,0,2,0,1 @ F,0,0,1,0,2,0,1 @ F,0,0,1,0,2,0,1 @ F,0,0,1,0,2,0,1 @ F,0,0,1,0,2,0,1 @ F,0,0,1,0,2,0,1 @ F,0,0,1,0,2,0,1 @ F,0,0,1,0,2,0,1 @ F,0,0,1,0,2,0,1 @ F,0,0,1,0,2,0,1 @ F,0,0,1,0,2,0,1 @ F,0,0,1,0,2,0,1 @ F,0,0,1,0,2,0,1 @ F,0,0,1,0,2,0,1 @ F,0,0,1,0,2,0,1 @ F,0,0,1,0,2,0,1 @ F,0,0,1,0,2,0,1 @ F,0,0,1,0,2,0,1 @ F,0,0,1,0,2,0,1 @ F,0,0,1,0,2,0,1 @ F,0,0,1,0,2,0,1 @ F,0,0,1,0,2,0,1 @ F,0,0,1,0,2,0,1 @ F,0,0,1,0,2,0,1 @ F,0,0,1,0,2,0,1 @ F,0,0,1,0,2,0,1 @ F,0,0,1,0,2,0,1 @ F,0,0,1,0,2,0,1 @ F,0,0,1,0,2,0,1 @ F,0,0,1,0,2,0,1 @ F,0,0,1,0,2,0,1 @ F,0,0,1,0,2,0,1 @ F,0,0,1,0,2,0,1 @ F,0,0,1,0,2,0,1 @ F,0,0,1,0,2,0,1 @ F,0,0,1,0,2,0,1 @ F,0,0,1,0,2,0,1 @ F,0,0,1,0,2,0,1 @ F,0,0,1,0,2,0,1 @ F,0,0,1,0,2,0,1 @ F,0,0,1,0,2,0,1 @ F,0,0,1,0,2,0,1 @ F,0,0,1,0,2,0,1 @ F,0,0,1,0,2,0,1"
       unit="px"
       method="auto"
       mode="F"
       radius="2"
       chamfer_steps="1"
       flexible="false"
       use_knot_distance="true"
       apply_no_radius="true"
       apply_with_radius="true"
       only_selected="false"
       hide_knots="false" />
    <inkscape:path-effect
       effect="fillet_chamfer"
       id="path-effect852"
       is_visible="true"
       lpeversion="1"
       satellites_param="F,0,0,1,0,16,0,1 @ F,0,0,1,0,16,0,1 @ F,0,0,1,0,16,0,1 @ F,0,0,1,0,16,0,1"
       unit="px"
       method="auto"
       mode="F"
       radius="16"
       chamfer_steps="1"
       flexible="false"
       use_knot_distance="true"
       apply_no_radius="true"
       apply_with_radius="true"
       only_selected="false"
       hide_knots="false" />
    <inkscape:path-effect
       effect="offset"
       id="path-effect850"
       is_visible="true"
       lpeversion="1"
       linejoin_type="miter"
       unit="px"
       offset="4.1"
       miter_limit="4"
       attempt_force_join="true"
       update_on_knot_move="true" />
    <inkscape:path-effect
       effect="fillet_chamfer"
       id="path-effect837"
       is_visible="true"
       lpeversion="1"
       satellites_param="F,0,0,1,0,4,0,1 @ F,0,0,1,0,4,0,1 @ F,0,0,1,0,4,0,1 @ F,0,0,1,0,4,0,1"
       unit="px"
       method="auto"
       mode="F"
       radius="4"
       chamfer_steps="1"
       flexible="false"
       use_knot_distance="true"
       apply_no_radius="true"
       apply_with_radius="true"
       only_selected="false"
       hide_knots="false" />
  </defs>
  <sodipodi:namedview
     id="base"
     pagecolor="#f0cfaf"
     bordercolor="#666666"
     borderopacity="1.0"
     inkscape:pageopacity="0"
     inkscape:pageshadow="2"
     inkscape:zoom="15.839192"
     inkscape:cx="26.439275"
     inkscape:cy="32.512882"
     inkscape:document-units="px"
     inkscape:current-layer="layer1"
     inkscape:document-rotation="0"
     showgrid="true"
     showguides="true"
     inkscape:guide-bbox="true"
     units="px"
     inkscape:window-width="1920"
     inkscape:window-height="1017"
     inkscape:window-x="-8"
     inkscape:window-y="63"
     inkscape:window-maximized="1"
     inkscape:snap-grids="true"
     inkscape:snap-page="true"
     inkscape:snap-center="false"
     inkscape:object-nodes="true"
     inkscape:snap-object-midpoints="true"
     inkscape:snap-bbox="true"
     inkscape:bbox-nodes="true"
     inkscape:snap-intersection-paths="true"
     inkscape:snap-global="false">
    <inkscape:grid
       dotted="true"
       empspacing="8"
       id="grid830"
       type="xygrid" />
  </sodipodi:namedview>
  <metadata
     id="metadata5">
    <rdf:RDF>
      <cc:Work
         rdf:about="">
        <dc:format>image/svg+xml</dc:format>
        <dc:type
           rdf:resource="http://purl.org/dc/dcmitype/StillImage" />
        <dc:title></dc:title>
      </cc:Work>
    </rdf:RDF>
  </metadata>
  <g
     inkscape:label="Layer 1"
     inkscape:groupmode="layer"
     id="layer1">
    <path
       style="fill:#000000;fill-rule:nonzero;stroke:none;stroke-width:1px;stroke-linecap:butt;stroke-linejoin:miter;stroke-opacity:1"
       d="m 23,40 c -0.09892,-0.201013 -0.145499,-0.696362 -0.443903,-0.902089 -0.18186,-0.125379 -0.448233,-0.126805 -0.8361,-0.110885 -0.233882,0.0096 -0.511223,0.02483 -0.87048,0.02364 -0.611968,-0.002 -1.288945,-0.0511 -2.209536,-0.175305 -0.807001,-0.10888 -1.701217,-0.263645 -2.572854,-0.398101 -0.984086,-0.151803 -1.821567,-0.257235 -2.643962,-0.298834 -0.178766,-0.009 -0.349951,-0.01468 -0.515476,-0.01737 -0.253194,-0.0041 -0.519963,-0.0022 -0.792062,0.01352 -0.418202,0.02411 -0.864103,0.08139 -1.313272,0.207173 -0.434634,0.121714 -0.8693476,0.30677 -1.2832357,0.582902 -0.4152764,0.27706 -0.7839317,0.62891 -1.0979841,1.054577 -0.3255034,0.441187 -0.5765068,0.940147 -0.7625278,1.475823 -0.2044215,0.588663 -0.3278551,1.214468 -0.3883734,1.842233 -0.1465004,1.519675 0.080219,3.078932 0.4140937,3.828991 C 8.0718696,47.996893 8.783555,47.857779 9,48 c 0.1759699,-0.198879 0.8724126,-0.271857 1.08046,-1.117783 0.182446,-0.741827 0.170277,-2.133373 0.289097,-3.27611 0.0496,-0.477006 0.115226,-0.890053 0.203632,-1.251295 0.07872,-0.321666 0.170975,-0.581952 0.270674,-0.790294 0.09408,-0.196598 0.199717,-0.358167 0.321261,-0.490969 0.123506,-0.134947 0.274484,-0.252368 0.466894,-0.348906 0.201796,-0.101246 0.440789,-0.174985 0.712586,-0.217733 0.175262,-0.02756 0.359066,-0.0414 0.546767,-0.04247 0.121712,-6.9e-4 0.252233,0.0038 0.392128,0.01377 0.64145,0.04575 1.37946,0.197212 2.289995,0.424338 0.801141,0.199838 1.716212,0.453515 2.581522,0.643306 0.970596,0.212884 1.87652,0.346339 2.724007,0.329653 0.519021,-0.01022 0.978728,-0.07671 1.375588,-0.192137 0.683643,-0.198838 1.101482,-0.522236 1.189292,-0.781282 C 23.5626,40.551929 23.073984,40.150348 23,40 Z"
       id="path1470"
       inkscape:path-effect="#path-effect1472"
       inkscape:original-d="M 23,40 C 17.942218,42.488851 7,33 9,48"
       sodipodi:nodetypes="cc" />
    <path
       style="fill:#000000;fill-rule:nonzero;stroke:none;stroke-width:1px;stroke-linecap:butt;stroke-linejoin:miter;stroke-opacity:1"
       d="m 21.057782,26.511149 c 0.0076,-0.178453 0.430124,-0.714489 0.04258,-1.004491 C 20.644743,25.165712 19.083848,24.953133 17.802802,24.48203 17.036348,24.200168 16.382928,23.854885 15.809191,23.394905 15.27914,22.969948 14.833813,22.460208 14.432234,21.847208 14.002567,21.191333 13.64744,20.451346 13.354532,19.756279 13.288358,19.599249 13.225139,19.443814 13.165819,19.293478 12.933927,18.7058 12.69357,18.020489 12.401218,17.293311 12.059479,16.443294 11.652022,15.558834 11.085944,14.716696 10.457744,13.78214 9.7046788,13.008155 8.8249719,12.412262 7.6907125,11.643942 6.5220957,11.306474 5.9075803,11.353658 5.3316797,11.397876 5.1475375,11.888203 5,12 c 0.061634,0.174548 -0.043227,0.669968 0.3060695,1.043514 0.3681513,0.393709 1.2167457,0.856375 2.0019967,1.472001 0.6086136,0.477146 1.1581777,1.010005 1.6702951,1.690012 0.4676728,0.620992 0.8574901,1.303338 1.2124527,2.051166 0.297049,0.625816 0.564994,1.289561 0.789152,1.881639 0.05871,0.155082 0.117526,0.313924 0.179947,0.483176 0.262402,0.711489 0.595299,1.637373 1.03763,2.503525 0.425175,0.832556 0.969538,1.654119 1.72952,2.380095 0.832218,0.794979 1.814943,1.369703 2.902242,1.74067 1.798059,0.613468 3.651844,0.568835 4.185895,0.269842 0.438488,-0.245491 0.03549,-0.837076 0.04258,-1.004491 z"
       id="path1474"
       inkscape:path-effect="#path-effect1476"
       inkscape:original-d="M 21.057782,26.511149 C 9,26 15,15 5,12"
       sodipodi:nodetypes="cc" />
    <path
       style="fill:#000000;fill-rule:nonzero;stroke:none;stroke-width:1px;stroke-linecap:butt;stroke-linejoin:miter;stroke-opacity:1"
       d="m 42,28 c 0.0198,0.160822 -0.443571,0.807358 0.122842,0.99786 0.682095,0.22941 2.846226,0.05982 4.951597,-0.714399 1.268592,-0.466506 2.419366,-1.106268 3.418727,-1.91456 0.915475,-0.740443 1.609427,-1.544563 2.1622,-2.338691 0.579245,-0.83216 1.004513,-1.659685 1.318088,-2.264427 0.07416,-0.143024 0.141884,-0.273624 0.208503,-0.399722 0.255423,-0.48347 0.531815,-0.971307 0.802846,-1.362445 0.159183,-0.229724 0.311651,-0.419643 0.460528,-0.571786 0.148264,-0.151517 0.280477,-0.252802 0.399976,-0.322383 0.119916,-0.06982 0.231032,-0.109851 0.337496,-0.138101 0.117761,-0.03125 0.260243,-0.05579 0.435076,-0.07029 0.237252,-0.01967 0.464145,-0.01715 0.769141,-0.01446 0.317,0.0028 0.642339,0.0038 0.871214,-0.06506 C 58.690829,18.691437 58.868008,18.132443 59,18 c -0.01197,-0.180684 0.248455,-0.729112 -0.09836,-1.118837 -0.182144,-0.20468 -0.537314,-0.417155 -0.988507,-0.571153 -0.398807,-0.136119 -0.881054,-0.229098 -1.395859,-0.220821 -0.425786,0.0068 -0.864774,0.08277 -1.293263,0.251111 -0.391826,0.153941 -0.741973,0.372102 -1.052367,0.641799 -0.295607,0.25685 -0.539979,0.546981 -0.749598,0.84675 -0.208546,0.298236 -0.387173,0.612654 -0.546942,0.91731 -0.278337,0.530747 -0.516998,1.056073 -0.764887,1.524631 -0.06358,0.120172 -0.132171,0.245647 -0.205137,0.374218 -0.32056,0.564848 -0.73925,1.215888 -1.273102,1.845242 -0.500328,0.589832 -1.091573,1.150427 -1.824295,1.66549 -0.80454,0.565546 -1.710492,1.02836 -2.748556,1.429998 -1.711981,0.662383 -3.630447,1.039915 -4.181968,1.416402 C 41.405635,27.324017 41.979526,27.83369 42,28 Z"
       id="path1478"
       inkscape:path-effect="#path-effect1480"
       inkscape:original-d="M 42,28 C 56.504711,26.214388 51,15 59,18"
       sodipodi:nodetypes="cc" />
    <path
       style="fill:#000000;fill-rule:nonzero;stroke:none;stroke-width:1px;stroke-linecap:butt;stroke-linejoin:miter;stroke-opacity:1"
       d="m 43,36 c -9.06e-4,0.167563 -0.195372,0.744476 -0.0054,1.005378 0.130829,0.179713 0.440724,0.311556 0.744158,0.455661 0.18256,0.0867 0.37896,0.183556 0.588194,0.310438 0.344961,0.209188 0.727071,0.500931 1.17457,0.989325 0.415597,0.453577 0.821215,1.003309 1.254885,1.652955 0.415102,0.621832 0.950625,1.485848 1.325317,2.080208 0.09552,0.151528 0.184239,0.291755 0.274937,0.434602 0.340567,0.53639 0.748283,1.170093 1.223485,1.785065 0.558486,0.722754 1.212418,1.424154 2.016749,2.010905 0.883013,0.644149 1.8431,1.072053 2.847533,1.288161 1.399568,0.301122 2.673853,0.132424 3.17698,-0.146055 C 58.069299,47.618718 57.943987,47.13702 58,47 c -0.08707,-0.130768 -0.0673,-0.601711 -0.486065,-0.79528 -0.464061,-0.214506 -1.492633,-0.296842 -2.476718,-0.585738 -0.703276,-0.206459 -1.362263,-0.494463 -2.000705,-0.92776 -0.587875,-0.398978 -1.11472,-0.892306 -1.600928,-1.469055 C 51.019325,42.728392 50.653135,42.196675 50.347383,41.692199 50.26844,41.561947 50.18865,41.42522 50.107298,41.281393 49.74833,40.646747 49.372473,39.885512 48.957284,39.10424 48.573568,38.38219 48.151997,37.643502 47.648623,36.986476 47.091423,36.259192 46.463331,35.6717 45.731839,35.275281 45.287099,35.034262 44.847081,34.88833 44.439056,34.819148 43.745006,34.701469 43.208153,34.815061 43.005437,34.994622 42.739136,35.230505 43.000771,35.857425 43,36 Z"
       id="path1461"
       inkscape:path-effect="#path-effect1468"
       inkscape:original-d="m 43,36 c 6.25198,0.03381 5,12 15,11"
       sodipodi:nodetypes="cc" />
    <circle
       style="opacity:0.997;fill:#006675;fill-opacity:1;stroke:#000000;stroke-width:1;stroke-linecap:round;stroke-linejoin:round;stroke-miterlimit:4;stroke-dasharray:none;stroke-opacity:1"
       id="path1440"
       cx="32"
       cy="32"
       r="13" />
    <path
       id="path1434"
       style="opacity:0.997;fill:#000000;fill-opacity:1;stroke:none;stroke-width:16;stroke-linecap:round;stroke-linejoin:round;stroke-miterlimit:4;stroke-dasharray:none;stroke-opacity:1"
       d="m 28,30 a 2,2 0 0 1 -2,2 2,2 0 0 1 -2,-2 2,2 0 0 1 2,-2 2,2 0 0 1 2,2 z" />
    <path
       id="path1436"
       style="opacity:0.997;fill:#000000;fill-opacity:1;stroke:none;stroke-width:16;stroke-linecap:round;stroke-linejoin:round;stroke-miterlimit:4;stroke-dasharray:none;stroke-opacity:1"
       d="m 40,30 a 2,2 0 0 1 -2,2 2,2 0 0 1 -2,-2 2,2 0 0 1 2,-2 2,2 0 0 1 2,2 z" />
    <path
       style="fill:none;stroke:#000000;stroke-width:1px;stroke-linecap:round;stroke-linejoin:miter;stroke-opacity:1"
       d="m 24,37 8,-3 8,3"
       id="path1451"
       sodipodi:nodetypes="ccc" />
    <path
       style="fill:none;stroke:#000000;stroke-width:1px;stroke-linecap:round;stroke-linejoin:miter;stroke-opacity:1"
       d="M 30,27 21,24"
       id="path1453" />
    <path
       style="fill:none;stroke:#000000;stroke-width:1px;stroke-linecap:round;stroke-linejoin:miter;stroke-opacity:1"
       d="m 34,27 9,-3"
       id="path1455" />
  </g>
</svg>
