<?xml version="1.0" encoding="UTF-8" standalone="no"?>
<svg
   xmlns:dc="http://purl.org/dc/elements/1.1/"
   xmlns:cc="http://creativecommons.org/ns#"
   xmlns:rdf="http://www.w3.org/1999/02/22-rdf-syntax-ns#"
   xmlns:svg="http://www.w3.org/2000/svg"
   xmlns="http://www.w3.org/2000/svg"
   xmlns:sodipodi="http://sodipodi.sourceforge.net/DTD/sodipodi-0.dtd"
   xmlns:inkscape="http://www.inkscape.org/namespaces/inkscape"
   width="64"
   height="64"
   viewBox="0 0 64 64"
   version="1.1"
   id="svg8"
   inkscape:version="1.0.2-2 (e86c870879, 2021-01-15)"
   sodipodi:docname="StaticMonster.svg"
   inkscape:export-filename="D:\gamedev\Testing\MobileJump\Assets\Assets\Images\Teardrop.png"
   inkscape:export-xdpi="192"
   inkscape:export-ydpi="192">
  <defs
     id="defs2">
    <inkscape:path-effect
       effect="offset"
       id="path-effect1449"
       is_visible="true"
       lpeversion="1"
       linejoin_type="miter"
       unit="px"
       offset="0.4"
       miter_limit="4"
       attempt_force_join="true"
       update_on_knot_move="true" />
    <inkscape:path-effect
       effect="fillet_chamfer"
       id="path-effect1447"
       is_visible="true"
       lpeversion="1"
       satellites_param="F,0,0,1,0,2,0,1 @ F,0,0,1,0,2,0,1 @ F,0,0,1,0,2,0,1 @ F,0,0,1,0,2,0,1 @ F,0,0,1,0,2,0,1 @ F,0,0,1,0,2,0,1 @ F,0,0,1,0,2,0,1 @ F,0,0,1,0,2,0,1 @ F,0,0,1,0,2,0,1 @ F,0,0,1,0,2,0,1 @ F,0,0,1,0,2,0,1 @ F,0,0,1,0,2,0,1 @ F,0,0,1,0,2,0,1 @ F,0,0,1,0,2,0,1 @ F,0,0,1,0,2,0,1 @ F,0,0,1,0,2,0,1 @ F,0,0,1,0,2,0,1 @ F,0,0,1,0,2,0,1 @ F,0,0,1,0,2,0,1 @ F,0,0,1,0,2,0,1 @ F,0,0,1,0,2,0,1 @ F,0,0,1,0,2,0,1 @ F,0,0,1,0,2,0,1 @ F,0,0,1,0,2,0,1 @ F,0,0,1,0,2,0,1 @ F,0,0,1,0,2,0,1 @ F,0,0,1,0,2,0,1 @ F,0,0,1,0,2,0,1 @ F,0,0,1,0,2,0,1 @ F,0,0,1,0,2,0,1 @ F,0,0,1,0,2,0,1 @ F,0,0,1,0,2,0,1 @ F,0,0,1,0,2,0,1 @ F,0,0,1,0,2,0,1 @ F,0,0,1,0,2,0,1 @ F,0,0,1,0,2,0,1 @ F,0,0,1,0,2,0,1 @ F,0,0,1,0,2,0,1 @ F,0,0,1,0,2,0,1 @ F,0,0,1,0,2,0,1 @ F,0,0,1,0,2,0,1 @ F,0,0,1,0,2,0,1 @ F,0,0,1,0,2,0,1 @ F,0,0,1,0,2,0,1 @ F,0,0,1,0,2,0,1 @ F,0,0,1,0,2,0,1 @ F,0,0,1,0,2,0,1 @ F,0,0,1,0,2,0,1 @ F,0,0,1,0,2,0,1 @ F,0,0,1,0,2,0,1 @ F,0,0,1,0,2,0,1 @ F,0,0,1,0,2,0,1 @ F,0,0,1,0,2,0,1 @ F,0,0,1,0,2,0,1 @ F,0,0,1,0,2,0,1 @ F,0,0,1,0,2,0,1 @ F,0,0,1,0,2,0,1 @ F,0,0,1,0,2,0,1 @ F,0,0,1,0,2,0,1 @ F,0,0,1,0,2,0,1 @ F,0,0,1,0,2,0,1 @ F,0,0,1,0,2,0,1 @ F,0,0,1,0,2,0,1 @ F,0,0,1,0,2,0,1"
       unit="px"
       method="auto"
       mode="F"
       radius="2"
       chamfer_steps="1"
       flexible="false"
       use_knot_distance="true"
       apply_no_radius="true"
       apply_with_radius="true"
       only_selected="false"
       hide_knots="false" />
    <inkscape:path-effect
       effect="fillet_chamfer"
       id="path-effect852"
       is_visible="true"
       lpeversion="1"
       satellites_param="F,0,0,1,0,16,0,1 @ F,0,0,1,0,16,0,1 @ F,0,0,1,0,16,0,1 @ F,0,0,1,0,16,0,1"
       unit="px"
       method="auto"
       mode="F"
       radius="16"
       chamfer_steps="1"
       flexible="false"
       use_knot_distance="true"
       apply_no_radius="true"
       apply_with_radius="true"
       only_selected="false"
       hide_knots="false" />
    <inkscape:path-effect
       effect="offset"
       id="path-effect850"
       is_visible="true"
       lpeversion="1"
       linejoin_type="miter"
       unit="px"
       offset="4.1"
       miter_limit="4"
       attempt_force_join="true"
       update_on_knot_move="true" />
    <inkscape:path-effect
       effect="fillet_chamfer"
       id="path-effect837"
       is_visible="true"
       lpeversion="1"
       satellites_param="F,0,0,1,0,4,0,1 @ F,0,0,1,0,4,0,1 @ F,0,0,1,0,4,0,1 @ F,0,0,1,0,4,0,1"
       unit="px"
       method="auto"
       mode="F"
       radius="4"
       chamfer_steps="1"
       flexible="false"
       use_knot_distance="true"
       apply_no_radius="true"
       apply_with_radius="true"
       only_selected="false"
       hide_knots="false" />
  </defs>
  <sodipodi:namedview
     id="base"
     pagecolor="#f0cfaf"
     bordercolor="#666666"
     borderopacity="1.0"
     inkscape:pageopacity="0"
     inkscape:pageshadow="2"
     inkscape:zoom="11.2"
     inkscape:cx="26.72452"
     inkscape:cy="38.977878"
     inkscape:document-units="px"
     inkscape:current-layer="layer1"
     inkscape:document-rotation="0"
     showgrid="true"
     showguides="true"
     inkscape:guide-bbox="true"
     units="px"
     inkscape:window-width="1920"
     inkscape:window-height="1017"
     inkscape:window-x="-8"
     inkscape:window-y="63"
     inkscape:window-maximized="1"
     inkscape:snap-grids="true"
     inkscape:snap-page="true"
     inkscape:snap-center="false"
     inkscape:object-nodes="false"
     inkscape:snap-object-midpoints="true"
     inkscape:snap-bbox="true"
     inkscape:bbox-nodes="true">
    <inkscape:grid
       dotted="true"
       empspacing="8"
       id="grid830"
       type="xygrid" />
  </sodipodi:namedview>
  <metadata
     id="metadata5">
    <rdf:RDF>
      <cc:Work
         rdf:about="">
        <dc:format>image/svg+xml</dc:format>
        <dc:type
           rdf:resource="http://purl.org/dc/dcmitype/StillImage" />
        <dc:title></dc:title>
      </cc:Work>
    </rdf:RDF>
  </metadata>
  <g
     inkscape:label="Layer 1"
     inkscape:groupmode="layer"
     id="layer1">
    <path
       id="path1444"
       style="opacity:0.996;fill:#9c2c8a;fill-opacity:1;stroke:#000000;stroke-width:1;stroke-linecap:round;stroke-linejoin:round;stroke-miterlimit:4;stroke-dasharray:none;stroke-opacity:1"
       d="m 32.230556,54.013333 1.017472,-8.767424 a 0.49541621,0.49541621 172.70706 0 1 0.953985,-0.122089 l 3.31745,8.550453 a 0.22546486,0.22546486 165.22642 0 0 0.433278,-0.114263 l -1.283659,-8.754611 a 0.46897057,0.46897057 158.46175 0 1 0.849408,-0.335246 l 5.58782,8.05936 a 0.20846419,0.20846419 151.21572 0 0 0.363443,-0.199675 l -3.582641,-8.508753 a 0.42657227,0.42657227 145.12631 0 1 0.684535,-0.477071 l 7.745948,7.245061 a 0.18728807,0.18728807 138.43612 0 0 0.279043,-0.247432 l -5.845234,-7.982386 a 0.38114565,0.38114565 132.99629 0 1 0.510655,-0.547682 l 9.673093,6.09304 a 0.1672129,0.1672129 126.98583 0 0 0.200497,-0.266205 l -7.983054,-7.128908 a 0.34147539,0.34147539 122.07589 0 1 0.357502,-0.57044 l 11.247662,4.632914 a 0.15100277,0.15100277 116.70449 0 0 0.135333,-0.269027 l -9.875411,-5.938956 a 0.31136193,0.31136193 112.17338 0 1 0.232225,-0.569808 l 12.36808,2.929287 a 0.13952427,0.13952427 107.31516 0 0 0.08285,-0.265757 L 48.298712,36.010889 a 0.29160499,0.29160499 103.01036 0 1 0.129923,-0.562293 l 12.963259,1.069177 a 0.13277589,0.13277589 98.513117 0 0 0.03923,-0.262049 L 48.96633,33.535387 a 0.28190422,0.28190422 94.288186 0 1 0.04174,-0.556727 l 12.996173,-0.848379 a 0.13055799,0.13055799 89.999992 0 0 0,-0.260561 L 49.008075,31.021344 a 0.28190407,0.28190407 85.711801 0 1 -0.04174,-0.556726 l 12.464791,-2.72034 a 0.13277616,0.13277616 81.486882 0 0 -0.03922,-0.262049 l -12.963259,1.069175 a 0.29160476,0.29160476 76.989657 0 1 -0.129922,-0.562293 l 11.402123,-4.44682 a 0.13952407,0.13952407 72.684853 0 0 -0.08285,-0.265757 l -12.368082,2.929285 a 0.31136201,0.31136201 67.826626 0 1 -0.232225,-0.569808 l 9.875413,-5.938956 A 0.15100273,0.15100273 63.295511 0 0 56.757761,19.428028 L 45.5101,24.060941 a 0.34147538,0.34147538 57.92411 0 1 -0.357502,-0.57044 l 7.983054,-7.128907 a 0.16721297,0.16721297 53.014174 0 0 -0.200497,-0.266205 l -9.673095,6.093039 a 0.38114569,0.38114569 47.003716 0 1 -0.510655,-0.547681 l 5.845234,-7.982386 A 0.18728808,0.18728808 41.563881 0 0 48.317596,13.41093 l -7.745949,7.24506 a 0.42657251,0.42657251 34.873693 0 1 -0.684536,-0.477071 l 3.582643,-8.508757 A 0.20846417,0.20846417 28.784269 0 0 43.10631,11.470487 l -5.58782,8.059363 a 0.4689704,0.4689704 21.538244 0 1 -0.849408,-0.335246 l 1.283659,-8.754609 a 0.22546494,0.22546494 14.773588 0 0 -0.433278,-0.114264 l -3.31745,8.55045 A 0.4954163,0.4954163 7.2929394 0 1 33.248028,18.754092 L 32.230556,9.9866666 a 0.23210321,0.23210321 6.6559272e-6 0 0 -0.461112,-10e-8 l -1.017475,8.7674255 a 0.49541647,0.49541647 172.70707 0 1 -0.953985,0.122089 l -3.317449,-8.55045 a 0.22546565,0.22546565 165.22644 0 0 -0.43328,0.114264 l 1.283653,8.754609 a 0.46897132,0.46897132 158.46178 0 1 -0.84941,0.335246 l -5.587822,-8.059364 a 0.20846429,0.20846429 151.21573 0 0 -0.363444,0.199675 l 3.582643,8.508758 a 0.42657178,0.42657178 145.12633 0 1 -0.684535,0.47707 l -7.745938,-7.24506 a 0.18728762,0.18728762 138.43615 0 0 -0.279043,0.247431 l 5.845233,7.982386 a 0.38114558,0.38114558 132.9963 0 1 -0.510655,0.547682 l -9.673091,-6.093042 a 0.16721283,0.16721283 126.98584 0 0 -0.200497,0.266206 L 18.847402,23.4905 A 0.34147557,0.34147557 122.0759 0 1 18.4899,24.060941 L 7.2422404,19.428028 a 0.15100278,0.15100278 116.70449 0 0 -0.1353328,0.269027 l 9.8754104,5.938956 a 0.31136178,0.31136178 112.17339 0 1 -0.232225,0.569807 L 4.3820123,23.27653 a 0.1395241,0.1395241 107.31516 0 0 -0.082851,0.265756 l 11.4021227,4.446825 a 0.29160511,0.29160511 103.01035 0 1 -0.129923,0.562293 L 2.6080993,27.482229 a 0.13277613,0.13277613 98.513116 0 0 -0.039225,0.262049 l 12.4647946,2.72034 a 0.28190403,0.28190403 94.288198 0 1 -0.04175,0.556726 L 1.9957522,31.86972 a 0.130558,0.130558 90.000008 0 0 0,0.260561 L 14.991924,32.97866 a 0.28190391,0.28190391 85.711822 0 1 0.04175,0.556726 L 2.5688746,36.255721 a 0.13277583,0.13277583 81.486899 0 0 0.039225,0.262049 L 15.571361,35.448595 a 0.29160517,0.29160517 76.989653 0 1 0.129923,0.562294 L 4.2991613,40.457713 a 0.13952433,0.13952433 72.684845 0 0 0.082851,0.265757 L 16.750093,37.794185 a 0.31136208,0.31136208 67.826623 0 1 0.232225,0.569808 l -9.8754104,5.938956 a 0.15100272,0.15100272 63.295507 0 0 0.1353327,0.269027 L 18.4899,39.939062 a 0.34147524,0.34147524 57.924108 0 1 0.357502,0.57044 l -7.983056,7.128908 a 0.1672128,0.1672128 53.014172 0 0 0.200497,0.266205 l 9.673093,-6.09304 a 0.38114583,0.38114583 47.003705 0 1 0.510656,0.547682 l -5.845233,7.982386 a 0.18728805,0.18728805 41.563866 0 0 0.279044,0.247432 l 7.745944,-7.245061 a 0.426572,0.426572 34.87369 0 1 0.684535,0.477071 l -3.582642,8.508753 a 0.20846418,0.20846418 28.78428 0 0 0.363443,0.199675 l 5.587821,-8.05936 a 0.46897063,0.46897063 21.538249 0 1 0.849408,0.335246 l -1.283659,8.754611 a 0.22546494,0.22546494 14.773587 0 0 0.433278,0.114263 l 3.317451,-8.550453 a 0.4954167,0.4954167 7.2929274 0 1 0.953985,0.122088 l 1.017477,8.767426 a 0.23210338,0.23210338 179.99999 0 0 0.461112,-10e-7 z"
       inkscape:path-effect="#path-effect1447"
       inkscape:original-d="m 32,56 1.478584,-12.740758 4.764308,12.279609 -1.863961,-12.712293 7.866938,11.34655 -5.134873,-12.195293 10.66725,9.977459 -8.20845,-11.209648 13.057619,8.224938 -10.966586,-9.793216 14.946198,6.156342 -13.303281,-8.000438 16.2604,3.851153 L 46.435403,35.284199 63.385126,36.68217 47.012323,33.108941 64,32 47.012323,30.891064 63.385128,27.317832 46.435405,28.715801 61.564148,22.815601 45.303746,26.666752 58.607029,18.666314 43.660832,24.822655 54.627418,15.02944 41.569797,23.254377 49.778247,12.044731 39.110996,22.022189 44.245869,9.8268915 36.378931,21.173445 38.242892,8.4611534 33.478584,20.740759 32,8 30.521413,20.740759 25.757106,8.4611532 27.621057,21.173445 19.754117,9.826891 24.88899,22.022189 14.221752,12.044729 22.430199,23.254377 9.3725836,15.029437 20.339168,24.822655 5.3929724,18.666314 18.696253,26.666752 2.435852,22.815596 17.564593,28.715801 0.61486729,27.317832 16.987676,30.891064 0,32 16.987676,33.108941 0.61486729,36.682166 17.564593,35.284199 2.435852,41.184403 18.696253,37.333252 5.3929724,45.33369 20.339168,39.177348 9.3725799,48.970564 22.430199,40.745626 14.221752,51.955274 24.888998,41.977815 19.754124,54.173108 27.621063,42.826558 25.757102,55.538851 30.521411,43.259242 Z" />
    <ellipse
       style="opacity:0.997;fill:#9c2c8a;fill-opacity:1;stroke:none;stroke-width:12.49;stroke-linecap:round;stroke-linejoin:round;stroke-miterlimit:4;stroke-dasharray:none;stroke-opacity:1"
       id="path1440"
       cx="32"
       cy="32"
       rx="18"
       ry="13" />
    <path
       id="path1434"
       style="opacity:0.997;fill:#000000;fill-opacity:1;stroke:none;stroke-width:16;stroke-linecap:round;stroke-linejoin:round;stroke-miterlimit:4;stroke-dasharray:none;stroke-opacity:1"
       d="m 28,30 a 2,2 0 0 1 -2,2 2,2 0 0 1 -2,-2 2,2 0 0 1 2,-2 2,2 0 0 1 2,2 z" />
    <path
       id="path1436"
       style="opacity:0.997;fill:#000000;fill-opacity:1;stroke:none;stroke-width:16;stroke-linecap:round;stroke-linejoin:round;stroke-miterlimit:4;stroke-dasharray:none;stroke-opacity:1"
       d="m 40,30 a 2,2 0 0 1 -2,2 2,2 0 0 1 -2,-2 2,2 0 0 1 2,-2 2,2 0 0 1 2,2 z" />
    <path
       style="fill:none;stroke:#000000;stroke-width:1px;stroke-linecap:round;stroke-linejoin:miter;stroke-opacity:1"
       d="m 24,37 8,3 8,-3"
       id="path1451" />
    <path
       style="fill:none;stroke:#000000;stroke-width:1px;stroke-linecap:round;stroke-linejoin:miter;stroke-opacity:1"
       d="M 30,27 21,24"
       id="path1453" />
    <path
       style="fill:none;stroke:#000000;stroke-width:1px;stroke-linecap:round;stroke-linejoin:miter;stroke-opacity:1"
       d="m 34,27 9,-3"
       id="path1455" />
  </g>
</svg>
